<?xml version="1.0" encoding="UTF-8"?>
<svg id="Layer_1" data-name="Layer 1" xmlns="http://www.w3.org/2000/svg" viewBox="0 0 420 80">
  <defs>
    <style>
      .cls-1 {
        fill: #06d373;
      }

      .cls-2 {
        fill: #ff80e3;
      }

      .cls-3 {
        fill: #11002d;
      }

      .cls-4 {
        fill: #fff;
      }

      .cls-5 {
        fill: #dbd7e2;
      }
    </style>
  </defs>
  <g>
    <g>
      <path class="cls-1" d="M343.8,59.06c10.59,0,19.17-8.58,19.17-19.17s-8.58-19.17-19.17-19.17-19.17,8.58-19.17,19.17,8.58,19.17,19.17,19.17Z"/>
      <path class="cls-2" d="M305.46,59.09c10.59,0,19.17-8.58,19.17-19.17s-8.58-19.17-19.17-19.17-19.17,8.58-19.17,19.17,8.58,19.17,19.17,19.17Z"/>
      <path class="cls-5" d="M382.14,59.09c10.59,0,19.17-8.58,19.17-19.17s-8.58-19.17-19.17-19.17-19.17,8.58-19.17,19.17,8.58,19.17,19.17,19.17Z"/>
      <path class="cls-3" d="M298.47,29.91h7.73c3.9,0,7.33,1.88,7.33,6.41,0,4.24-2.97,6.87-7.71,6.87h-2.63v6.93h-4.73v-20.2ZM305.82,39.15c1.85,0,2.89-.81,2.89-2.6,0-1.67-.81-2.6-2.89-2.6h-2.63v5.19h2.63Z"/>
      <path class="cls-3" d="M338.29,29.91h4.73v16.02h7.45v4.19h-12.18v-20.2Z"/>
      <path class="cls-3" d="M372.39,40.16c0-5.83,3.43-10.62,10.1-10.62,4.47,0,7.56,2.25,9.15,6.35l-4.24,1.47c-.95-2.31-2.37-3.61-5.02-3.61-2.97,0-5.14,1.64-5.14,6.41s1.76,6.09,4.82,6.09c2.77,0,4.62-1.47,4.62-3.61v-.09h-4.85v-3.55h9.64v11.11h-3.95l.29-5.51h-.26c-.52,2.48-2.4,5.86-7.33,5.86-5.54,0-7.82-4.04-7.82-10.3h0Z"/>
    </g>
    <g>
      <path class="cls-4" d="M157.92,58.23v-19.84l-2.34-2.67,11.05-2.39v3.61c1.13-1.15,2.43-2.08,3.91-2.79s3.06-1.07,4.75-1.07c1.38,0,2.64.29,3.77.87,1.13.58,2.02,1.4,2.67,2.45.65,1.05.98,2.24.98,3.56v18.24l-8.71.07v-18.02c0-1.13-.29-2.02-.88-2.69-.59-.66-1.43-.99-2.53-.99-.76,0-1.49.14-2.18.42-.69.28-1.29.67-1.78,1.18v20.03l-8.71.05Z"/>
      <path class="cls-4" d="M181.89,36.94c1.13-1.15,2.43-2.08,3.91-2.79s3.06-1.07,4.75-1.07c1.38,0,2.64.29,3.77.87,1.13.58,2.02,1.4,2.67,2.45.65,1.05.98,2.24.98,3.56v18.24l-8.71.07v-18.02c0-1.13-.29-2.02-.88-2.69-.59-.66-1.43-.99-2.53-.99-.76,0-1.49.14-2.18.42-.69.28-1.29.67-1.78,1.18"/>
      <path class="cls-4" d="M48.19,45.32c0,8.56-5.08,13.38-14.77,13.38-4.05-.06-8.08-.66-11.96-1.78v-27.58l-2.76-2.32,12.45-4.26v15.56c2.57-2.55,5.57-4.21,8.43-4.21,4.89,0,8.62,3.88,8.62,11.21ZM37.83,47.99c0-6.34-1.4-9.51-4.65-9.51-.7.02-1.4.18-2.03.48v18.09c.7.47,1.53.72,2.37.71,2.52,0,4.31-2.94,4.31-9.77Z"/>
      <path class="cls-4" d="M53.16,58.23v-18.02l-2.76-2.32,12.45-4.26v24.61h-9.69ZM52.62,27.53c0-3.12,1.94-5.25,5.37-5.25s5.38,2.13,5.38,5.25-1.94,5.3-5.38,5.3-5.37-2.13-5.37-5.3Z"/>
      <path class="cls-4" d="M70,58.23v-28.9l-2.76-2.32,12.45-4.26v35.48h-9.68Z"/>
      <path class="cls-4" d="M105.65,53.97c-2.03,3.03-5.28,4.76-9.78,4.76-6.83,0-12.45-4.64-12.45-11.97,0-6.91,4.75-12.63,12.5-12.63,4.55,0,7.7,2.6,7.7,6.06,0,3.92-3.1,7.38-8.91,9.51,2.76,2.65,6.25,4.4,9.5,4.4.47,0,.94-.05,1.4-.14l.05.02ZM89.43,38.55c0,3.93,2.08,7.9,4.99,10.83,1.36-1.7,1.89-3.57,1.89-6,0-4.12-2.81-7.62-4.87-7.62-1.26,0-2.01,1.04-2.01,2.79Z"/>
      <path class="cls-4" d="M214.59,58.23v-2.69c-2.28,1.89-4.87,3.17-7.51,3.17-3.15,0-5.28-1.75-5.28-4.76,0-4.35,4.75-7.23,12.78-8.09,0-5.2-2.13-7.81-5.81-7.81-1.94-.05-3.83.58-5.33,1.78l-.24-.24c3.29-3.6,6.88-5.53,11.72-5.53,6.09,0,9.35,3.41,9.35,10.27v13.9h-9.69ZM214.59,54.87v-8.37c-2.9.8-4.02,2.6-4.02,5.11,0,2.22.97,3.41,2.9,3.41.38,0,.75-.06,1.11-.14Z"/>
      <path class="cls-4" d="M127.17,53.87c-1.83,2.79-4.99,4.82-9.45,4.82-5.76,0-8.07-3.31-8.07-9.46v-13.44h-3.73v-.05l13.47-10.31v8.46h6.83v1.9h-6.83v11.01c0,5.49,1.3,7.52,4.87,7.52.98.02,1.95-.16,2.86-.52l.04.06Z"/>
      <path class="cls-4" d="M247.19,53.93c-1.83,2.79-4.99,4.82-9.45,4.82-5.76,0-8.07-3.31-8.07-9.46v-13.44h-3.73v-.05l13.47-10.31v8.46h6.83v1.9h-6.83v11.01c0,5.49,1.3,7.52,4.87,7.52.98.02,1.95-.16,2.86-.52l.04.06Z"/>
      <path class="cls-4" d="M127.17,46.19c0-6.82,5.34-12.25,13.11-12.25s13.54,4.77,13.54,12.25c0,6.96-4.43,12.54-13.49,12.54-6.86,0-13.16-4.86-13.16-12.54ZM147.62,54.58c0-4-8.01-18.92-12.2-18.92-1.19,0-1.91.86-1.91,2.34,0,4.67,8.25,19.02,12.15,19.02,1.29,0,1.95-.81,1.95-2.43Z"/>
    </g>
  </g>
  <path class="cls-5" d="M268.96,15.92h0c.67,0,1.2.54,1.2,1.2v45.76c0,.67-.54,1.2-1.2,1.2h0c-.67,0-1.2-.54-1.2-1.2V17.12c0-.67.54-1.2,1.2-1.2Z"/>
</svg>