<svg version="1.2" xmlns="http://www.w3.org/2000/svg" viewBox="0 0 678 253" width="678" height="253">
	<style>
		.s0 { fill: #000000 } 
	</style>
	<path id="Path 1" fill-rule="evenodd" class="s0" d="m112.15 101.15c12.3-12.64 29.11-19.75 46.79-19.75 36.06 0 65.31 29.23 65.31 65.29v36.08c0 15.62 12.66 28.28 28.28 28.28 15.62 0 28.28-12.66 28.28-28.28v-36.16c0-35.72 28.8-64.77 64.5-65.2q0.8-0.01 1.6 0c24.07 0.28 46.15 13.88 57.21 35.23 2.27 4.37 3.96 8.89 5.2 13.61 13.47-29.62 43.07-48.86 75.9-48.86 46.04 0 83.36 37.32 83.36 83.36 0 46.03-37.32 83.36-83.36 83.36-31.14 0-59.46-17.32-73.8-44.58v30.56c0 10.23-8.29 18.51-18.51 18.51-10.23 0-18.52-8.28-18.52-18.51v-87.38c0-14.88-11.43-27.1-26.21-28.2q-2.21-0.17-4.41 0.01c-14.65 1.21-25.93 13.48-25.93 28.18v36.07c0 36.07-29.24 65.31-65.31 65.31-36.07 0-65.31-29.24-65.31-65.31v-36.09c0-15.61-12.67-28.25-28.28-28.25-15.53 0-28.27 12.56-28.27 28.12v81.41c0 10.23-8.29 18.52-18.52 18.52-10.22 0-18.51-8.29-18.51-18.52v-81.38c0-15.59-12.73-28.15-28.28-28.15-15.62 0-28.28 12.66-28.28 28.28l0.01 87.38c0 10.23-8.3 18.51-18.52 18.51-10.22 0-18.52-8.28-18.52-18.51v-87.38c0-36.07 29.25-65.31 65.31-65.31 17.68 0 34.49 7.11 46.79 19.75zm565.57 46.06l-0.06 2.66c-0.19 8.3-7.05 14.89-15.35 14.75-6.18-0.1-11.46-3.89-13.68-9.25-0.48-1.14-0.63-2.57-0.66-3.44l-0.63-11.94c-2.07-44.24-23.98-82.18-61.26-106.09l-10.02-6.52c-0.74-0.46-1.9-1.31-2.65-2.29-3.53-4.61-4.17-11.07-1.17-16.48 4.03-7.25 13.17-9.89 20.45-5.91l2.34 1.28c52.23 29.84 82.96 83.07 82.69 143.23zm-57.78 2c-0.3 7.81-6.89 13.9-14.71 13.6-7.63-0.3-13.61-6.59-13.61-14.16 0-0.46 0.01-0.89 0.03-1.36 0.82-28.38-14.74-55.34-39.73-68.81-0.41-0.23-0.79-0.43-1.19-0.66-6.56-3.78-9.02-12.11-5.46-18.87 3.65-6.92 12.22-9.58 19.14-5.94 35.23 18.52 57.12 56.42 55.53 96.2zm-134.72-30.78c-25.58 0-46.32 20.74-46.32 46.32 0 25.58 20.74 46.31 46.32 46.31 25.58 0 46.32-20.73 46.32-46.31 0-25.58-20.74-46.32-46.32-46.32z"/>
</svg>